<svg viewBox="0 0 24 24" fill="none" xmlns="http://www.w3.org/2000/svg">
  <path d="M22 16.92V19.92C22 20.4704 21.7893 20.9996 21.4142 21.3746C21.0391 21.7497 20.5099 21.9604 19.96 21.96C16.4194 21.7266 13.0269 20.4305 10.17 18.23C7.54537 16.2259 5.45993 13.6006 4.17 10.53C2.96 7.6614 1.65488 4.25912 1.44 0.679988C1.43964 0.131397 1.64961 0.602975 2.02355 0.227916C2.39749 -0.147143 2.92529 -0.359021 3.47 -0.359994H6.47C7.45568 -0.339647 8.27802 0.425954 8.38 1.41999C8.49564 2.68079 8.73303 3.92748 9.09 5.14C9.31345 5.89753 9.1348 6.7183 8.64 7.27999L7.29 8.62999C8.49196 11.3857 10.6156 13.6368 13.29 15C14.64 13.65 14.64 13.65 15.4 13.41C15.9712 12.9129 16.7985 12.7332 17.56 12.96C18.7679 13.313 20.0089 13.5489 21.26 13.66C22.2652 13.7662 23.0383 14.5892 23.05 15.58L22 16.92Z" stroke="currentColor" stroke-width="2" stroke-linecap="round" stroke-linejoin="round"/>
</svg>